<?xml version="1.0" standalone="no"?>
<!DOCTYPE svg PUBLIC "-//W3C//DTD SVG 20010904//EN"
 "http://www.w3.org/TR/2001/REC-SVG-20010904/DTD/svg10.dtd">
<svg version="1.0" xmlns="http://www.w3.org/2000/svg"
 width="564.000000pt" height="564.000000pt" viewBox="0 0 564.000000 564.000000"
 preserveAspectRatio="xMidYMid meet">
<metadata>
Created by potrace 1.14, written by Peter Selinger 2001-2017
</metadata>
<g transform="translate(0.000000,564.000000) scale(0.100000,-0.100000)"
fill="#000000" stroke="none">
<path d="M0 2820 l0 -2820 398 0 399 0 -3 32 -3 33 7 -30 7 -30 2418 -3 2417
-2 0 2820 0 2820 -1409 0 c-1110 0 -1410 -3 -1414 -13 -4 -9 -6 -9 -6 1 -1 9
-289 12 -1406 12 l-1405 0 0 -2820z m2771 2727 c-13 -13 -15 1 -4 30 7 17 8
17 11 -1 2 -10 -1 -23 -7 -29z m-55 -1141 c26 -9 55 -11 86 -6 27 4 49 3 50
-2 2 -5 30 -12 63 -15 82 -7 133 -42 161 -114 13 -31 18 -56 13 -60 -8 -5 -28
-143 -30 -203 0 -11 -9 -32 -19 -47 -11 -15 -20 -37 -20 -48 0 -16 -12 -27
-46 -41 -42 -18 -47 -19 -70 -4 -23 15 -36 32 -14 19 6 -3 13 1 16 10 8 19 -4
34 -14 18 -4 -7 -26 -12 -47 -12 -116 1 -138 -1 -182 -14 -27 -8 -66 -24 -87
-35 -22 -12 -43 -19 -47 -17 -4 3 -10 -2 -13 -10 -8 -22 46 -67 116 -95 24
-10 25 -14 17 -43 -11 -39 -12 -87 -1 -87 4 0 14 6 22 13 12 10 12 9 1 -6 -17
-22 -13 -27 21 -20 17 3 25 10 21 18 -2 8 8 20 25 29 29 15 30 15 36 -14 6
-35 38 -46 80 -30 16 6 31 9 33 6 8 -7 -54 -36 -77 -36 -26 0 -26 -18 1 -28
20 -8 19 -9 -8 -38 -15 -16 -25 -25 -20 -20 4 6 7 22 7 36 0 23 -6 27 -64 43
-79 21 -86 21 -58 1 13 -9 22 -26 22 -42 0 -15 8 -49 19 -77 16 -43 17 -54 5
-87 -13 -39 -14 -41 -14 -57 0 -5 -12 -11 -27 -13 -34 -4 -43 -34 -16 -53 17
-13 15 -14 -14 -15 -18 0 -33 5 -33 10 0 6 4 10 8 10 4 0 6 16 4 35 -2 19 -8
35 -12 35 -13 0 -18 38 -7 49 8 8 8 11 -1 11 -7 0 -12 7 -12 15 0 9 -7 30 -16
46 -11 22 -20 29 -32 24 -54 -23 -83 -23 -103 -2 -11 12 -17 27 -14 35 2 7 12
38 21 70 9 31 24 73 34 92 14 26 18 61 19 140 0 58 6 135 12 171 11 62 10 68
-9 87 -11 11 -23 17 -27 14 -3 -4 -4 0 -1 8 3 8 -1 33 -8 55 -13 35 -12 42 1
57 8 9 12 22 7 29 -4 7 -3 10 4 5 6 -3 14 4 17 16 4 13 14 31 22 40 8 9 12 22
8 27 -3 6 -1 11 5 11 6 0 28 19 48 41 28 32 86 79 98 79 1 0 19 -6 40 -14z
m1333 -7 c-22 -13 -31 -11 -17 5 7 8 17 12 22 9 4 -3 2 -9 -5 -14z m-1649 -19
c0 -5 -9 -14 -19 -20 -25 -13 -34 -13 -26 0 10 16 -7 12 -27 -7 -10 -9 -21
-13 -24 -10 -4 4 4 15 17 26 25 21 79 28 79 11z m710 -184 c0 -3 -4 -8 -10
-11 -5 -3 -10 -1 -10 4 0 6 5 11 10 11 6 0 10 -2 10 -4z m-763 -98 c-3 -8 -6
-5 -6 6 -1 11 2 17 5 13 3 -3 4 -12 1 -19z m-61 -55 c-8 -15 -15 -25 -16 -21
0 12 23 58 27 54 3 -2 -2 -17 -11 -33z m51 0 c-3 -10 -5 -4 -5 12 0 17 2 24 5
18 2 -7 2 -21 0 -30z m-10 -45 c-3 -8 -6 -5 -6 6 -1 11 2 17 5 13 3 -3 4 -12
1 -19z m-66 -11 c-10 -9 -11 -8 -5 6 3 10 9 15 12 12 3 -3 0 -11 -7 -18z m583
-185 c2 -4 -11 -6 -30 -4 -19 2 -34 6 -34 8 0 8 59 4 64 -4z m139 -68 c18 -9
35 -21 39 -27 10 -17 37 -17 47 0 16 29 39 7 40 -39 1 -47 -48 -210 -61 -202
-4 3 -8 -5 -8 -19 0 -13 -8 -32 -18 -43 -10 -11 -17 -25 -14 -32 2 -7 -5 -12
-17 -12 -12 0 -24 -6 -26 -12 -7 -18 -53 -19 -59 -1 -4 9 -13 13 -22 9 -14 -5
-15 -4 -4 9 7 8 10 26 8 40 -3 13 0 26 6 29 7 3 2 12 -10 24 -30 25 -21 61 27
116 43 49 46 58 23 77 -11 9 -14 22 -9 48 11 58 12 58 58 35z m-108 -64 c34
-22 21 -26 -36 -9 -27 9 -49 9 -81 1 -51 -13 -60 -9 -21 12 40 22 102 20 138
-4z m-25 -64 c0 -3 -4 -8 -10 -11 -5 -3 -10 -1 -10 4 0 6 5 11 10 11 6 0 10
-2 10 -4z m-43 -228 c-3 -8 -6 -5 -6 6 -1 11 2 17 5 13 3 -3 4 -12 1 -19z
m143 -103 c10 -12 10 -15 -4 -15 -9 0 -16 7 -16 15 0 8 2 15 4 15 2 0 9 -7 16
-15z m-198 -82 c3 -16 9 -36 13 -45 4 -12 3 -18 -5 -18 -6 0 -16 13 -22 28 -9
24 -16 27 -47 25 l-36 -2 35 9 c19 4 36 13 38 19 7 20 20 11 24 -16z m51 2
c-3 -9 -8 -14 -10 -11 -3 3 -2 9 2 15 9 16 15 13 8 -4z m-198 -25 c4 -6 -5
-10 -19 -10 -14 0 -26 5 -26 10 0 6 9 10 19 10 11 0 23 -4 26 -10z m45 -14 c0
-3 -4 -8 -10 -11 -5 -3 -10 -1 -10 4 0 6 5 11 10 11 6 0 10 -2 10 -4z m10 -47
c0 -5 -7 -9 -15 -9 -15 0 -20 12 -9 23 8 8 24 -1 24 -14z m-53 -5 c-3 -3 -12
-4 -19 -1 -8 3 -5 6 6 6 11 1 17 -2 13 -5z m158 -16 c-6 -17 -4 -20 9 -15 9 4
16 5 16 3 0 -3 3 -12 6 -20 5 -12 2 -15 -11 -10 -14 6 -16 3 -11 -14 6 -17 4
-21 -8 -16 -12 5 -15 2 -10 -11 7 -16 5 -16 -14 1 -16 13 -18 20 -9 27 9 7 9
10 0 14 -7 2 -13 12 -13 20 0 9 -8 22 -17 29 -16 12 -13 13 25 14 40 0 43 -2
37 -22z m-99 -10 c4 -6 8 -39 10 -74 2 -47 -1 -64 -12 -68 -13 -5 -20 33 -16
87 1 10 -2 26 -8 36 -14 27 10 45 26 19z m181 -10 c-3 -8 -6 -5 -6 6 -1 11 2
17 5 13 3 -3 4 -12 1 -19z m-149 -13 c-3 -3 -9 2 -12 12 -6 14 -5 15 5 6 7 -7
10 -15 7 -18z m132 -39 c0 -3 -4 -8 -10 -11 -5 -3 -10 -1 -10 4 0 6 5 11 10
11 6 0 10 -2 10 -4z m925 -434 c-4 -4 -10 -1 -12 6 -3 6 -9 12 -14 12 -4 0 -5
-7 -2 -17 5 -11 3 -14 -6 -8 -10 5 -11 2 -6 -14 6 -20 -4 -28 -18 -15 -10 11
21 62 40 66 18 4 31 -18 18 -30z m-701 19 c3 -5 -1 -11 -9 -14 -9 -4 -12 -1
-8 9 6 16 10 17 17 5z m-68 -26 c-1 -23 -16 -37 -16 -15 0 5 -7 7 -16 3 -13
-5 -13 -7 -2 -14 9 -6 4 -9 -15 -9 -15 0 -30 -7 -33 -15 -4 -8 -10 -15 -16
-15 -5 0 -7 4 -4 8 3 5 -8 6 -25 4 -16 -2 -29 -9 -29 -14 0 -5 -4 -6 -10 -3
-5 3 -10 -1 -10 -9 0 -10 -9 -16 -22 -16 -19 0 -20 2 -8 10 12 8 12 10 -5 11
-16 0 -14 3 8 11 29 10 38 31 10 22 -15 -5 -15 -3 2 10 18 15 20 15 27 -1 6
-17 7 -17 7 -1 1 12 18 22 59 33 31 9 62 18 67 20 25 8 33 3 31 -20z m929 -5
c-3 -5 -12 -10 -18 -10 -7 0 -6 4 3 10 19 12 23 12 15 0z m-1258 -62 c-3 -8
-6 -5 -6 6 -1 11 2 17 5 13 3 -3 4 -12 1 -19z m1261 -53 c-8 -7 -9 -6 -4 2 3
6 0 18 -7 25 -10 9 -11 15 -3 24 8 9 13 5 18 -14 5 -16 3 -31 -4 -37z m19 43
c-3 -8 -6 -5 -6 6 -1 11 2 17 5 13 3 -3 4 -12 1 -19z m-1077 8 c0 -3 -4 -8
-10 -11 -5 -3 -10 -1 -10 4 0 6 5 11 10 11 6 0 10 -2 10 -4z m813 -21 c-3 -9
-8 -14 -10 -11 -3 3 -2 9 2 15 9 16 15 13 8 -4z m280 -77 c-4 -19 -10 -25 -21
-21 -9 4 -13 2 -9 -4 11 -17 -3 -43 -22 -43 -14 1 -14 2 2 11 12 7 15 17 11
33 -3 13 -1 27 5 30 6 4 11 1 11 -6 0 -9 3 -9 10 2 13 20 13 33 0 25 -12 -7
-12 -3 -3 21 6 16 7 16 14 -2 4 -11 5 -32 2 -46z m-1296 -40 c-3 -7 -5 -2 -5
12 0 14 2 19 5 13 2 -7 2 -19 0 -25z m1290 -30 c-3 -8 -6 -5 -6 6 -1 11 2 17
5 13 3 -3 4 -12 1 -19z m-17 -18 c0 -13 -28 -25 -38 -16 -3 4 0 11 8 16 20 13
30 12 30 0z m-121 -31 c-19 -12 -24 -2 -8 17 9 11 14 13 17 4 3 -7 -2 -16 -9
-21z m55 -3 c-10 -8 -21 -12 -24 -10 -5 6 21 24 34 24 6 0 1 -6 -10 -14z
m-3097 -83 c-3 -10 -5 -2 -5 17 0 19 2 27 5 18 2 -10 2 -26 0 -35z m3043 33
c0 -2 -8 -10 -17 -17 -16 -13 -17 -12 -4 4 13 16 21 21 21 13z m-3056 -201 c4
-77 11 -160 16 -185 5 -25 9 -80 10 -123 0 -68 3 -80 18 -84 17 -4 18 -17 17
-145 -1 -102 -5 -142 -15 -148 -14 -8 -22 -57 -11 -64 4 -3 8 4 8 15 1 11 10
30 20 42 18 23 18 23 21 -37 8 -188 12 -247 16 -255 3 -4 8 -61 11 -126 5
-105 4 -116 -10 -105 -13 11 -14 10 -9 -4 3 -9 9 -16 13 -16 4 0 8 -16 9 -35
1 -20 5 -41 9 -48 4 -7 6 -21 5 -32 -2 -17 -1 -17 7 -5 12 18 15 1 3 -18 -6
-9 -12 -5 -23 15 -14 28 -14 28 -17 -25 -2 -28 -7 -52 -11 -52 -11 0 -24 -180
-24 -330 0 -63 -2 -106 -4 -95 -3 11 -9 24 -14 29 -5 6 -9 42 -9 81 0 38 -5
86 -11 105 -13 45 -14 168 0 250 6 36 9 76 6 88 -2 12 0 22 6 22 5 0 7 10 4
23 -7 28 -8 36 -5 192 1 81 6 135 13 144 8 10 8 13 1 8 -8 -4 -11 12 -10 53 1
41 -2 61 -11 64 -7 3 -12 9 -11 13 4 18 -15 124 -23 129 -5 3 -9 9 -9 15 0 11
22 7 32 -6 12 -15 9 23 -4 67 -13 44 -30 32 -22 -17 5 -26 4 -28 -7 -11 -6 10
-13 42 -14 70 -1 28 -7 65 -12 81 -11 35 -10 102 2 113 5 4 5 -1 2 -10 -4 -10
-2 -18 5 -18 7 0 8 12 4 32 -12 60 -17 174 -7 153 7 -14 10 12 9 90 -1 97 10
250 18 243 1 -2 5 -66 8 -143z m1881 75 c3 -5 1 -10 -4 -10 -6 0 -11 5 -11 10
0 6 2 10 4 10 3 0 8 -4 11 -10z m40 -94 c13 5 16 3 13 -7 -3 -8 1 -21 8 -30
12 -13 12 -16 -1 -16 -8 0 -12 4 -10 8 3 3 -2 12 -10 19 -8 7 -15 9 -15 4 0
-12 -20 19 -20 31 0 6 4 4 8 -3 5 -7 16 -10 27 -6z m120 -71 c14 -5 16 -9 7
-12 -16 -6 -62 16 -62 29 0 4 8 4 18 -1 9 -5 26 -13 37 -16z m-120 -3 c-3 -3
-11 0 -18 7 -9 10 -8 11 6 5 10 -3 15 -9 12 -12z m41 -18 c1 -9 0 -13 -4 -10
-3 4 -7 14 -8 22 -1 9 0 13 4 10 3 -4 7 -14 8 -22z m68 -129 c-7 -18 -17 -20
-11 -2 2 6 -3 18 -12 25 -14 11 -13 12 6 2 14 -6 20 -16 17 -25z m-1582 -87
c-10 -22 -10 -21 -9 9 1 19 6 28 11 23 6 -6 5 -18 -2 -32z m-487 -175 c5 -18
3 -22 -9 -17 -9 3 -16 18 -16 32 0 29 14 20 25 -15z m255 -66 c0 -18 -2 -19
-10 -7 -13 20 -13 43 0 35 6 -3 10 -16 10 -28z m30 -50 c0 -39 -5 -60 -19 -76
-16 -19 -19 -33 -15 -88 3 -36 12 -75 20 -88 12 -18 12 -28 3 -51 l-12 -29 -9
33 c-5 17 -10 32 -12 32 -2 0 -3 -24 -2 -52 0 -29 -4 -60 -9 -68 -5 -8 -11
-31 -12 -50 -2 -19 -4 -42 -5 -50 -1 -8 1 -58 6 -111 8 -98 2 -164 -15 -153
-5 3 -9 14 -9 24 0 10 -6 21 -12 24 -10 5 -10 7 0 12 6 3 12 10 12 15 0 6 -4
8 -8 5 -4 -2 -7 7 -7 22 1 15 -1 31 -3 36 -8 16 -8 85 0 80 4 -3 8 4 8 16 0
12 -3 19 -7 17 -5 -3 -8 5 -8 16 -1 12 -4 47 -8 77 -5 38 -4 50 3 40 6 -9 10
-10 10 -3 0 6 -4 14 -10 18 -5 3 -7 12 -3 20 3 8 0 15 -6 15 -11 0 -10 34 1
46 4 3 4 16 2 29 -5 28 22 42 29 15 3 -11 1 -20 -4 -22 -4 -2 -4 -10 1 -18 14
-23 23 -4 16 35 -5 26 -12 35 -24 33 -13 -2 -17 4 -16 30 1 17 -2 32 -7 32 -6
0 -6 8 0 19 6 10 8 21 4 24 -3 3 2 14 11 23 9 9 20 30 23 46 5 26 34 54 45 43
3 -3 13 4 23 15 10 11 20 20 22 20 1 0 3 -24 3 -53z m-263 -159 c-3 -7 -5 -2
-5 12 0 14 2 19 5 13 2 -7 2 -19 0 -25z m396 -37 c2 -10 1 -24 -3 -31 -5 -7
-9 0 -12 19 -5 34 7 43 15 12z m684 -73 c-3 -8 -6 -5 -6 6 -1 11 2 17 5 13 3
-3 4 -12 1 -19z m1112 -441 c1 -30 -3 -46 -9 -42 -6 3 -9 45 -9 93 1 77 2 82
10 42 4 -25 8 -67 8 -93z m-2062 -99 c-3 -7 -5 -2 -5 12 0 14 2 19 5 13 2 -7
2 -19 0 -25z m57 7 c-4 -8 -8 -15 -10 -15 -2 0 -4 7 -4 15 0 8 4 15 10 15 5 0
7 -7 4 -15z m-77 -57 c-3 -7 -5 -2 -5 12 0 14 2 19 5 13 2 -7 2 -19 0 -25z
m13 -53 c0 -8 -2 -15 -4 -15 -2 0 -6 7 -10 15 -3 8 -1 15 4 15 6 0 10 -7 10
-15z m120 -180 c-7 -8 -16 -12 -21 -9 -13 8 -1 24 18 24 13 0 13 -3 3 -15z
m1937 -17 c-3 -8 -6 -5 -6 6 -1 11 2 17 5 13 3 -3 4 -12 1 -19z m-2116 -228
c-8 -22 -17 38 -12 80 5 33 5 33 12 -15 3 -27 3 -57 0 -65z"/>
<path d="M2658 3293 c6 -2 18 -2 25 0 6 3 1 5 -13 5 -14 0 -19 -2 -12 -5z"/>
<path d="M2845 2540 c-3 -5 -1 -10 4 -10 6 0 11 5 11 10 0 6 -2 10 -4 10 -3 0
-8 -4 -11 -10z"/>
<path d="M756 1804 c-3 -9 -6 -52 -6 -96 0 -65 -2 -78 -13 -70 -20 17 -21 -56
-2 -99 l16 -34 -7 35 c-3 19 -8 45 -11 58 -3 12 0 22 6 22 6 0 11 -10 12 -22
0 -13 3 -31 7 -40 4 -9 8 46 10 122 1 77 1 140 -2 140 -2 0 -7 -7 -10 -16z"/>
<path d="M772 1510 c0 -14 3 -34 8 -45 l9 -20 -1 20 c0 11 -4 31 -8 45 l-8 25
0 -25z"/>
<path d="M792 1390 c0 -19 2 -27 5 -17 2 9 2 25 0 35 -3 9 -5 1 -5 -18z"/>
<path d="M832 975 c0 -16 2 -22 5 -12 2 9 2 23 0 30 -3 6 -5 -1 -5 -18z"/>
<path d="M830 929 c0 -5 5 -7 10 -4 6 3 10 8 10 11 0 2 -4 4 -10 4 -5 0 -10
-5 -10 -11z"/>
<path d="M843 875 c0 -22 2 -30 4 -17 2 12 2 30 0 40 -3 9 -5 -1 -4 -23z"/>
<path d="M792 550 c0 -14 2 -19 5 -12 2 6 2 18 0 25 -3 6 -5 1 -5 -13z"/>
<path d="M972 1381 c-11 -7 -11 -9 2 -14 10 -4 16 -1 16 8 0 17 -1 17 -18 6z"/>
<path d="M880 1126 c0 -2 7 -17 15 -32 l15 -29 0 26 c0 15 -7 29 -15 33 -8 3
-15 4 -15 2z"/>
</g>
</svg>
